<svg width="39" height="44" viewBox="0 0 39 44" fill="none" xmlns="http://www.w3.org/2000/svg">
<path d="M19.2694 0C20.2819 0 21.1027 0.820811 21.1027 1.83333V5.00236C28.3376 5.90453 33.9361 12.0762 33.9361 19.5556V27.3037C33.9361 27.523 34.0536 27.7254 34.244 27.8342L36.2107 28.9581C37.3977 29.6363 38.189 30.8411 38.3399 32.1998L38.5122 33.7498C38.7937 36.2838 36.8101 38.5 34.2605 38.5H24.7694C24.7694 41.5376 22.307 44 19.2694 44C16.2318 44 13.7694 41.5376 13.7694 38.5H4.27828C1.72868 38.5 -0.254885 36.2838 0.0266711 33.7498L0.198893 32.1998C0.349864 30.8411 1.14116 29.6363 2.32813 28.9581L4.29483 27.8342C4.48524 27.7254 4.60275 27.523 4.60275 27.3037V19.5556C4.60275 12.0763 10.2012 5.90455 17.4361 5.00236V1.83333C17.4361 0.820811 18.2569 0 19.2694 0ZM17.4361 38.5C17.4361 39.5125 18.2569 40.3333 19.2694 40.3333C20.2819 40.3333 21.1027 39.5125 21.1027 38.5H17.4361ZM19.2694 8.55556C13.1943 8.55556 8.26941 13.4804 8.26941 19.5556V27.3037C8.26941 28.8388 7.44686 30.2562 6.11401 31.0178L4.14731 32.1416C3.97774 32.2385 3.8647 32.4106 3.84313 32.6047L3.67091 34.1547C3.63069 34.5167 3.91406 34.8333 4.27828 34.8333H34.2605C34.6248 34.8333 34.9081 34.5167 34.8679 34.1547L34.6957 32.6047C34.6741 32.4106 34.5611 32.2385 34.3915 32.1416L32.4248 31.0178C31.092 30.2562 30.2694 28.8388 30.2694 27.3037V19.5556C30.2694 13.4804 25.3445 8.55556 19.2694 8.55556Z" fill="black"/>
</svg>
