<svg width="47" height="36" viewBox="0 0 47 36" fill="none" xmlns="http://www.w3.org/2000/svg">
<path d="M44.1176 0C45.5114 0 46.4778 1.38993 45.9924 2.69649C45.7013 3.4801 44.9535 4 44.1176 4H42.4017C41.9565 4 41.5649 4.29429 41.4411 4.72192L35.1201 26.5562C34.8725 27.4114 34.0894 28 33.199 28H9.55394C8.74832 28 8.02135 27.5166 7.70967 26.7738L0.157854 8.77375C-0.395092 7.45578 0.57286 6 2.00212 6H29.9761C31.302 6 32.2609 7.2667 31.9011 8.54283C31.658 9.40472 30.8716 10 29.9761 10H6.51417C5.79953 10 5.31555 10.7279 5.59204 11.3869L10.6269 23.3869C10.7827 23.7583 11.1462 24 11.549 24H30.986C31.4324 24 31.8248 23.7041 31.9475 23.275L38.1894 1.45005C38.4349 0.591698 39.2196 0 40.1123 0H44.1176ZM15.9941 30C14.3381 30 12.9941 31.344 12.9941 33C12.9941 34.658 14.3381 36 15.9941 36C17.6501 36 18.9941 34.658 18.9941 33C18.9941 31.344 17.6501 30 15.9941 30ZM25.9941 30C24.3381 30 22.9941 31.342 22.9941 33C22.9941 34.658 24.3381 36 25.9941 36C27.6501 36 28.9941 34.658 28.9941 33C28.9941 31.344 27.6501 30 25.9941 30Z" fill="black"/>
</svg>
