<svg width="44" height="44" viewBox="0 0 44 44" fill="none" xmlns="http://www.w3.org/2000/svg">
<path fill-rule="evenodd" clip-rule="evenodd" d="M22 39.875C31.8721 39.875 39.875 31.8721 39.875 22C39.875 12.1279 31.8721 4.125 22 4.125C12.1279 4.125 4.125 12.1279 4.125 22C4.125 31.8721 12.1279 39.875 22 39.875ZM44 22C44 34.1503 34.1503 44 22 44C9.84974 44 0 34.1503 0 22C0 9.84974 9.84974 0 22 0C34.1503 0 44 9.84974 44 22Z" fill="black"/>
<path fill-rule="evenodd" clip-rule="evenodd" d="M26.1792 26.2425C26.8214 25.8541 27.2703 25.2131 27.4155 24.4767L29.8703 12.0352C30.0048 11.3535 29.266 10.8362 28.6715 11.1958L17.8198 17.7577C17.1776 18.1461 16.7287 18.7871 16.5834 19.5234L14.1287 31.965C13.9942 32.6467 14.7329 33.164 15.3275 32.8044L26.1792 26.2425ZM19.4549 25.6341L23.6052 23.1244L24.5441 18.366L20.3937 20.8757L19.4549 25.6341Z" fill="black"/>
</svg>
