<svg width="32" height="29" viewBox="0 0 32 29" fill="none" xmlns="http://www.w3.org/2000/svg">
<path d="M13.4777 1.11477C15.038 1.97278 15.8182 3.01299 15.8182 3.01299C15.8182 3.01299 16.5983 1.97278 18.1586 1.11477C19.2539 0.512503 20.7334 0 22.5974 0C27.8701 0 31.6364 4.14284 31.6364 9.41558C31.6364 15.4416 26.7118 20.8133 22.2208 24.8571C19.4481 27.3537 17.3247 29 15.8182 29C14.3117 29 12.128 27.3412 9.41558 24.8571C5.00079 20.8141 0 15.4416 0 9.41558C0 4.14284 3.76623 0 9.03896 0C10.9029 0 12.3825 0.512503 13.4777 1.11477ZM12.4521 4.01345C11.7158 3.5226 10.5927 3.01299 9.03896 3.01299C5.5902 3.01299 3.01299 5.64229 3.01299 9.41558C3.01299 11.5856 3.91721 13.8371 5.52913 16.1644C7.13703 18.4859 9.2927 20.659 11.4505 22.6351C12.7795 23.8522 13.8718 24.7661 14.756 25.3636C15.3465 25.7626 15.6836 25.9076 15.8165 25.9595C15.948 25.9074 16.2761 25.7633 16.8522 25.3721C17.7361 24.7719 18.8313 23.8547 20.2047 22.6181C22.3861 20.6538 24.5371 18.4844 26.1316 16.1702C27.7292 13.8515 28.6234 11.5966 28.6234 9.41558C28.6234 5.64229 26.0462 3.01299 22.5974 3.01299C21.0436 3.01299 19.9206 3.5226 19.1843 4.01345C17.8973 4.87146 16.8927 6.18781 15.8182 7.28139C14.7566 6.20102 13.7231 4.86082 12.4521 4.01345Z" fill="black"/>
</svg>
