<svg width="34" height="33" viewBox="0 0 34 33" fill="none" xmlns="http://www.w3.org/2000/svg">
<path d="M13.0295 0C17.2728 0 20.7027 3.43757 20.7027 7.67316C20.7027 11.9087 17.2728 15.3463 13.0295 15.3463C8.79393 15.3463 5.35636 11.9087 5.35636 7.67316C5.35636 3.43757 8.79393 0 13.0295 0ZM13.0295 3.06926C10.4897 3.06926 8.42562 5.13334 8.42562 7.67316C8.42562 10.213 10.4897 12.2771 13.0295 12.2771C15.577 12.2771 17.6334 10.213 17.6334 7.67316C17.6334 5.13334 15.577 3.06926 13.0295 3.06926Z" fill="black"/>
<path d="M13.0295 17.6483C16.1848 17.6483 18.8598 18.5048 20.9506 20.0235L18.7062 22.1948C17.1875 21.2404 15.2853 20.7175 13.0295 20.7175C6.82961 20.7175 3.29995 24.6769 3.06976 30.6926C3.05441 31.1147 2.71679 31.46 2.28709 31.46H0.752463C0.330439 31.46 -0.0148527 31.1147 0.000492477 30.6926C0.253707 23.0118 5.14151 17.6483 13.0295 17.6483Z" fill="black"/>
<path d="M33.6313 19.5902L32.3346 18.7768C31.9739 18.5543 31.4982 18.6617 31.2757 19.0223L25.1064 28.8977L21.5998 24.8923C21.3159 24.57 20.8325 24.5393 20.5179 24.8156L19.3592 25.8284C19.0446 26.1047 19.0063 26.5958 19.2902 26.9104L24.155 32.4734C24.4772 32.8417 24.9453 33.0335 25.4287 32.9952C25.9121 32.9568 26.3495 32.6882 26.6104 32.2739L33.8769 20.6491C34.0994 20.2884 33.992 19.8127 33.6313 19.5902Z" fill="black"/>
</svg>
