<svg width="36" height="32" viewBox="0 0 36 32" fill="none" xmlns="http://www.w3.org/2000/svg">
<path d="M6.85714 15.9999C6.85718 8.84656 12.6561 3.04762 19.8095 3.04762C26.9629 3.04762 32.7619 8.8466 32.7619 16C32.7619 23.1534 26.9629 28.9524 19.8095 28.9524C16.5069 28.9524 13.4929 27.7163 11.205 25.6815C10.8906 25.4018 10.4097 25.4 10.1121 25.6975L9.03461 26.775C8.73707 27.0725 8.73589 27.5564 9.04717 27.8396C11.8891 30.4244 15.6653 32 19.8095 32C28.6461 32 35.8095 24.8366 35.8095 16C35.8095 7.16344 28.6461 0 19.8095 0C10.973 0 3.80956 7.16341 3.80952 15.9999H0.498448C0.0880162 15.9999 -0.141825 16.4187 0.096225 16.7178L4.79156 22.6103C5.06245 22.9393 5.60422 22.9393 5.8751 22.6103L10.5704 16.7178C10.8085 16.4187 10.5787 15.9999 10.1682 15.9999H6.85714Z" fill="black"/>
<path d="M17.5238 8.38095C17.5238 7.96016 17.8649 7.61905 18.2857 7.61905H19.8095C20.2303 7.61905 20.5714 7.96016 20.5714 8.38095V15.1214L26.3898 18.49C26.754 18.7008 26.8783 19.1669 26.6675 19.5311L25.904 20.8498C25.6931 21.214 25.227 21.3383 24.8629 21.1275L17.904 17.0987C17.6687 16.9624 17.5238 16.7112 17.5238 16.4393V8.38095Z" fill="black"/>
</svg>
