<svg width="44" height="40" viewBox="0 0 44 40" fill="none" xmlns="http://www.w3.org/2000/svg">
<path fill-rule="evenodd" clip-rule="evenodd" d="M23.1884 0.425004C22.4972 -0.141676 21.5021 -0.141667 20.8109 0.425026L0.686294 16.9247C0.0737168 17.4269 -0.157136 18.2599 0.109551 19.0058C0.376237 19.7517 1.08292 20.2496 1.87506 20.2496H4.78947L6.27954 36.534C6.42675 38.1428 7.77596 39.3742 9.39148 39.3742H16.3754C17.0657 39.3742 17.6254 38.8145 17.6254 38.1242V28.5185C17.6254 24.7686 20.6849 24.7686 21.3753 24.7686H22.6253C23.3156 24.7686 26.3752 24.7686 26.3752 28.5185V38.1242C26.3752 38.8145 26.9348 39.3742 27.6251 39.3742H34.6093C36.2248 39.3742 37.574 38.1428 37.7212 36.534L39.2113 20.2496H42.1249C42.9171 20.2496 43.6238 19.7517 43.8905 19.0058C44.1571 18.2599 43.9263 17.4269 43.3137 16.9247L23.1884 0.425004Z" fill="black"/>
</svg>
