<svg width="27" height="32" viewBox="0 0 27 32" fill="none" xmlns="http://www.w3.org/2000/svg">
<path d="M8.25 8.25C7.83579 8.25 7.5 8.58579 7.5 9V10.5C7.5 10.9142 7.83579 11.25 8.25 11.25H18.75C19.1642 11.25 19.5 10.9142 19.5 10.5V9C19.5 8.58579 19.1642 8.25 18.75 8.25H8.25Z" fill="black"/>
<path d="M8.25 14.25C7.83579 14.25 7.5 14.5858 7.5 15V16.5C7.5 16.9142 7.83579 17.25 8.25 17.25H18.75C19.1642 17.25 19.5 16.9142 19.5 16.5V15C19.5 14.5858 19.1642 14.25 18.75 14.25H8.25Z" fill="black"/>
<path d="M7.5 21C7.5 20.5858 7.83579 20.25 8.25 20.25H14.25C14.6642 20.25 15 20.5858 15 21V22.5C15 22.9142 14.6642 23.25 14.25 23.25H8.25C7.83579 23.25 7.5 22.9142 7.5 22.5V21Z" fill="black"/>
<path fill-rule="evenodd" clip-rule="evenodd" d="M0 5.25C0 2.35051 2.35051 0 5.25 0H21.75C24.6495 0 27 2.35051 27 5.25V26.25C27 29.1495 24.6495 31.5 21.75 31.5H5.25C2.3505 31.5 0 29.1495 0 26.25V5.25ZM5.25 3H21.75C22.9926 3 24 4.00736 24 5.25V26.25C24 27.4926 22.9926 28.5 21.75 28.5H5.25C4.00736 28.5 3 27.4926 3 26.25V5.25C3 4.00736 4.00736 3 5.25 3Z" fill="black"/>
</svg>
