<svg width="34" height="41" viewBox="0 0 34 41" fill="none" xmlns="http://www.w3.org/2000/svg">
<path d="M16.995 0C22.5297 0 27.0034 4.48 27.0034 10C27.0034 15.52 22.5297 20 16.995 20C11.4703 20 6.98654 15.52 6.98654 10C6.98654 4.48 11.4703 0 16.995 0ZM16.995 4C13.6822 4 10.9899 6.69 10.9899 10C10.9899 13.31 13.6822 16 16.995 16C20.3178 16 23.0001 13.31 23.0001 10C23.0001 6.69 20.3178 4 16.995 4ZM16.995 23C27.2937 23 33.6691 29.99 33.9994 40C34.0194 40.55 33.569 41 33.0085 41H31.0068C30.4564 41 30.016 40.55 29.996 40C29.6957 32.16 25.0918 27 16.995 27C8.90817 27 4.30428 32.16 4.00402 40C3.98401 40.55 3.54363 41 2.98316 41H0.981471C0.431006 41 -0.0193745 40.55 0.00064245 40C0.330921 29.99 6.70631 23 16.995 23Z" fill="black"/>
</svg>
